<svg class="img-fluid" id="outputsvg" xmlns="http://www.w3.org/2000/svg" style="transform: none; transform-origin: 50% 50%; cursor: move;" width="685" height="120" viewBox="0 0 6850 1200"><g id="l5AFH1QMNrIAQCh4ZPooxfP" fill="rgb(255,255,255)" style="transform: none;"><g><path id="pry8WztPH" d="M0 600 l0 -600 3425 0 3425 0 0 600 0 600 -3425 0 -3425 0 0 -600z m1055 365 l25 -24 0 -344 c0 -325 -1 -346 -19 -368 l-19 -24 -338 -3 c-364 -3 -384 -1 -404 47 -7 19 -10 131 -8 365 l3 338 24 19 c22 18 43 19 368 19 l344 0 24 -25z m3965 -215 c0 -207 -2 -240 -15 -240 -13 0 -15 33 -15 240 0 207 2 240 15 240 13 0 15 -33 15 -240z m-3239 211 c96 -29 119 -76 119 -238 0 -141 -13 -174 -81 -213 -41 -23 -55 -25 -224 -30 l-180 -5 -5 -125 -5 -125 -30 0 -30 0 -3 379 -2 379 202 -6 c112 -3 219 -10 239 -16z m716 -4 c75 -40 93 -100 93 -319 l0 -168 -34 0 -35 0 -3 201 c-3 185 -5 202 -22 215 -15 11 -57 14 -176 14 -209 0 -194 17 -198 -236 l-4 -194 -35 0 -35 0 4 183 c3 166 5 186 26 229 41 83 85 98 267 94 89 -2 128 -7 152 -19z m343 -181 c0 -200 0 -205 22 -220 14 -10 44 -16 80 -16 l58 0 0 -36 0 -37 -60 6 c-96 8 -152 52 -170 133 -11 45 -13 357 -3 367 3 4 21 7 40 7 l33 0 0 -204z m390 -51 l0 -255 -35 0 -35 0 0 255 0 255 35 0 35 0 0 -255z m824 231 c65 -33 76 -62 76 -204 0 -122 -12 -180 -42 -198 -6 -4 -5 3 1 14 6 11 11 39 11 61 l0 39 -222 4 c-249 3 -269 8 -316 79 -32 46 -27 126 9 165 51 56 87 64 274 62 144 -3 176 -6 209 -22z m256 -171 l0 -195 95 0 c78 0 95 -3 95 -15 0 -12 -17 -15 -95 -15 l-95 0 0 -56 c0 -54 12 -92 34 -106 6 -4 48 -8 94 -8 66 0 82 -3 82 -15 0 -24 -113 -20 -165 5 -76 37 -80 50 -83 343 -3 254 -3 257 17 257 21 0 21 -5 21 -195z m380 -3 c0 -238 -1 -235 96 -242 46 -3 69 -10 72 -19 7 -20 -97 -9 -136 15 -60 35 -67 61 -70 262 -4 179 -3 182 17 182 21 0 21 -4 21 -198z m970 183 c0 -13 -28 -15 -191 -15 l-191 0 -29 -29 -29 -29 0 -134 c0 -73 3 -143 6 -156 12 -45 48 -52 249 -52 158 0 185 -2 185 -15 0 -13 -26 -15 -172 -15 -270 1 -298 21 -298 223 0 213 28 235 303 236 142 1 167 -1 167 -14z m654 -11 c66 -34 77 -68 74 -219 -2 -99 -7 -135 -19 -152 -15 -22 -15 -20 -11 31 l4 54 -223 4 c-242 3 -256 6 -308 62 -48 51 -34 176 23 209 57 33 84 36 251 34 149 -2 175 -4 209 -23z m-2252 -416 c-9 -9 -70 -14 -212 -16 -176 -3 -200 -1 -200 12 0 14 27 16 212 16 170 0 210 -3 200 -12z m2248 -3 c-38 -22 -400 -22 -400 0 0 13 30 15 213 15 189 -1 209 -2 187 -15z m-1292 -146 c-2 -6 -8 -10 -13 -10 -5 0 -11 4 -13 10 -2 6 4 11 13 11 9 0 15 -5 13 -11z m-1788 -44 c0 -13 -8 -28 -17 -34 -25 -13 -53 5 -53 34 0 22 4 25 35 25 30 0 35 -3 35 -25z"></path><path id="pILrNqtc7" d="M447 893 c-4 -3 -7 -98 -7 -210 l0 -203 70 0 70 0 0 -35 0 -34 -67 -3 -68 -3 -3 -97 -3 -98 101 0 100 0 0 65 0 65 60 0 c138 0 222 43 272 139 24 46 28 64 28 140 0 76 -4 95 -27 142 -34 66 -94 113 -163 128 -55 12 -352 15 -363 4z m292 -206 c13 -6 33 -24 44 -39 18 -24 19 -31 7 -52 -16 -31 -67 -56 -114 -56 l-36 0 0 80 0 80 38 0 c20 0 48 -6 61 -13z"></path><path id="p12qkBlGSd" d="M1410 724 l0 -175 189 3 c245 4 231 -6 231 175 0 184 14 173 -230 173 l-190 0 0 -176z"></path><path id="prmd3OexY" d="M3620 937 c-38 -19 -51 -54 -47 -126 3 -55 7 -67 31 -87 27 -24 29 -24 262 -24 l234 0 0 98 c0 93 -1 100 -26 123 -25 24 -29 24 -227 27 -150 2 -208 -1 -227 -11z"></path><path id="p1ENCIuOVm" d="M5884 940 c-37 -15 -54 -50 -54 -110 0 -75 7 -94 40 -113 24 -15 61 -17 259 -17 l231 0 0 94 c0 86 -2 98 -24 123 l-24 28 -204 2 c-111 1 -213 -2 -224 -7z"></path></g></g><g id="l6VvLwArvd5v9cgGmeowSCt" fill="rgb(212,138,56)" style="transform: none;"><g><path id="p12qOwzWYE" d="M289 1001 l-24 -19 -3 -368 c-3 -396 -1 -414 47 -434 19 -7 140 -10 395 -8 l368 3 19 24 c18 22 19 44 19 398 l0 374 -25 24 -24 25 -374 0 c-354 0 -376 -1 -398 -19z m491 -142 c154 -33 236 -209 162 -350 -50 -96 -134 -139 -272 -139 l-60 0 0 -65 0 -65 -70 0 -71 0 3 68 3 67 68 3 67 3 0 64 0 65 -70 0 -70 0 0 173 c0 96 3 177 7 180 11 11 248 8 303 -4z"></path><path id="pSHnfdNSh" d="M610 621 l0 -111 64 0 c36 0 76 4 89 9 72 28 91 114 38 173 -28 31 -33 33 -110 36 l-81 4 0 -111z"></path><path id="pl1A0wFuf" d="M4960 750 l0 -270 45 0 45 0 0 270 0 270 -45 0 -45 0 0 -270z"></path><path id="p1A7Wxk5Wl" d="M3605 991 c-73 -34 -90 -61 -93 -154 -3 -73 -1 -86 20 -116 47 -71 67 -76 316 -79 136 -2 222 -7 222 -13 0 -6 -5 -19 -10 -30 -10 -18 -23 -19 -225 -19 l-215 0 0 -45 0 -45 218 0 c191 0 221 2 251 18 61 33 71 66 71 242 0 177 -8 202 -76 236 -34 16 -65 19 -239 22 -178 2 -204 0 -240 -17z m439 -100 c23 -22 26 -32 26 -93 l0 -68 -204 0 c-190 0 -205 1 -229 20 -32 26 -44 78 -25 116 23 50 47 55 235 52 166 -3 172 -4 197 -27z"></path><path id="pJ8yfrAMH" d="M4242 723 c3 -266 5 -290 23 -321 31 -52 85 -72 193 -72 l92 0 0 45 0 45 -82 0 c-46 0 -88 4 -94 8 -18 11 -34 48 -34 76 l0 26 95 0 95 0 0 45 0 45 -95 0 -95 0 0 195 0 195 -51 0 -50 0 3 -287z"></path><path id="pJC4xUIMr" d="M4622 798 c3 -187 5 -217 22 -244 30 -50 70 -67 164 -72 l83 -5 -3 44 -3 44 -68 5 c-99 7 -97 3 -97 242 l0 198 -51 0 -50 0 3 -212z"></path><path id="pz3BoB4hF" d="M5265 997 c-95 -38 -105 -61 -105 -254 0 -172 10 -200 83 -233 37 -17 66 -20 245 -20 l202 0 0 45 0 45 -185 0 c-201 0 -237 7 -249 52 -3 13 -6 69 -6 126 0 101 1 104 29 133 l29 29 191 0 191 0 0 45 0 45 -197 -1 c-126 0 -209 -5 -228 -12z"></path><path id="p2vKjO23Q" d="M5875 997 c-88 -35 -109 -73 -103 -187 3 -67 7 -82 28 -105 53 -57 67 -60 308 -63 136 -2 222 -7 222 -13 0 -6 -5 -19 -10 -30 -10 -18 -23 -19 -225 -19 l-215 0 0 -45 0 -45 216 0 c203 0 219 1 255 22 60 34 69 63 69 235 0 171 -10 203 -76 237 -35 19 -59 21 -239 23 -138 2 -209 -2 -230 -10z m431 -110 c20 -23 24 -39 24 -93 l0 -64 -201 0 c-170 0 -205 3 -229 17 -60 35 -51 136 14 163 11 5 99 8 194 7 l174 -2 24 -28z"></path><path id="pWZOcCBpE" d="M4950 404 c0 -44 17 -64 55 -64 38 0 55 20 55 64 0 25 -3 26 -55 26 -52 0 -55 -1 -55 -26z"></path><path id="pFCp4O1MF" d="M3130 345 c0 -59 13 -75 65 -75 52 0 65 16 65 75 l0 55 -65 0 -65 0 0 -55z"></path></g></g><g id="l5zuuFtC68cF8DR7no3z6rF" fill="rgb(46,68,133)" style="transform: none;"><g><path id="ph04Hn60U" d="M1312 604 l3 -409 60 0 60 0 5 125 5 125 180 5 c169 5 183 7 224 30 71 41 81 69 81 243 0 162 -9 199 -55 235 -47 37 -93 44 -333 49 l-232 5 2 -408z m468 246 c17 -17 20 -33 20 -123 0 -144 4 -141 -201 -145 l-159 -3 0 145 0 146 160 0 c147 0 162 -2 180 -20z"></path><path id="p14egU5HvW" d="M2160 1001 c-53 -11 -87 -38 -112 -89 -21 -44 -23 -62 -26 -259 l-3 -213 65 0 64 0 4 194 c4 250 -6 236 168 236 93 0 131 -4 146 -14 17 -13 19 -30 22 -215 l3 -201 65 0 64 0 0 198 c0 203 -7 256 -42 305 -37 52 -69 61 -233 63 -82 2 -166 -1 -185 -5z"></path><path id="p3fLMMnWf" d="M2737 1003 c-10 -10 -8 -382 3 -427 21 -91 77 -128 202 -134 l88 -4 0 66 0 66 -58 0 c-36 0 -66 6 -80 16 -22 15 -22 20 -22 220 l0 204 -63 0 c-35 0 -67 -3 -70 -7z"></path><path id="pYepyPQhg" d="M3130 725 l0 -285 65 0 65 0 0 285 0 285 -65 0 -65 0 0 -285z"></path></g></g></svg>