<svg xmlns="http://www.w3.org/2000/svg" width="159" height="37" viewBox="0 0 159 37" fill="none">
<path d="M40.1123 36.34C45.7521 36.34 50.1101 32.8024 50.1101 27.8292C50.1101 23.2148 47.2389 20.9589 42.5733 19.7285L40.2149 19.1132C38.2666 18.6005 38.0615 17.8315 38.0615 17.2675C38.0615 16.2933 39.1895 15.9345 40.1636 15.9345C41.6505 15.9345 43.0348 16.4984 44.214 17.9853L49.2385 13.8324C47.1877 11.0125 44.1627 9.57693 40.2149 9.57693C34.6264 9.57693 30.4735 12.7044 30.371 17.4726C30.2684 21.5742 32.7807 24.7017 37.6514 25.8809L39.3433 26.2911C42.0094 26.9576 42.4708 27.419 42.4708 28.2906C42.4708 29.316 41.2916 29.7262 40.1123 29.7262C37.7539 29.7262 35.7544 28.752 34.5752 27.0601L29.4481 31.7257C31.8066 34.8532 35.6518 36.34 40.1123 36.34Z" fill="#364452"/>
<path d="M51.9205 35.7761H59.6624V24.2915L69.1986 35.7761H78.5811L66.8915 21.728L76.3252 10.1409H67.1478L59.6624 19.3183V10.2991H51.9205V35.7761Z" fill="#364452"/>
<path d="M88.1322 35.7761C91.4648 35.7761 89.3748 35.7761 92.4047 35.7761C95.4347 35.7761 101.547 31.3453 101.547 24.7529V10.1409H93.8056V22.5996C93.8056 27.3165 91.9086 29.316 88.9862 29.316C86.115 29.316 85.0384 27.1627 85.0384 23.4199V10.1409H77.2965V24.7529C77.2965 31.7257 81.7747 35.7761 88.1322 35.7761Z" fill="#364452"/>
<path d="M114.881 36.34C118.316 36.34 120.829 34.5969 121.854 33.2126V35.7761H129.596V10.1409H121.854V12.7044C120.829 11.3201 118.316 9.57693 114.881 9.57693C108.165 9.57693 102.987 15.6781 102.987 22.9585C102.987 30.2389 108.165 36.34 114.881 36.34ZM116.624 29.316C113.138 29.316 110.78 26.65 110.78 22.9585C110.78 19.267 113.138 16.601 116.624 16.601C120.111 16.601 122.469 19.267 122.469 22.9585C122.469 26.65 120.111 29.316 116.624 29.316Z" fill="#364452"/>
<path d="M143.319 36.34C146.754 36.34 149.266 34.5969 150.291 33.2126V35.7761H158.033V0H150.291V12.7044C149.266 11.3201 146.754 9.57693 143.319 9.57693C136.602 9.57693 131.424 15.6781 131.424 22.9585C131.424 30.2389 136.602 36.34 143.319 36.34ZM145.062 29.316C141.576 29.316 139.217 26.65 139.217 22.9585C139.217 19.267 141.576 16.601 145.062 16.601C148.548 16.601 150.907 19.267 150.907 22.9585C150.907 26.65 148.548 29.316 145.062 29.316Z" fill="#364452"/>
<path d="M2.42414 18.8472C4.27869 16.9927 7.28552 16.9927 9.14007 18.8472L13.5313 23.2384L9.14007 27.6296C7.28552 29.4842 4.27869 29.4842 2.42414 27.6296L1.39092 26.5964C-0.463638 24.7418 -0.463639 21.735 1.39092 19.8804L2.42414 18.8472Z" fill="#1CBBFC"/>
<path d="M26.2962 17.7069C29.0067 20.4174 29.0067 24.812 26.2962 27.5225L23.4548 30.3639L15.7057 22.6147L23.4548 14.8656L26.2962 17.7069Z" fill="#FE7360"/>
<path d="M11.2078 9.85113C12.9197 8.13923 15.6953 8.13923 17.4072 9.85113L18.957 11.401C20.6689 13.1129 20.6689 15.8884 18.957 17.6003L17.4072 19.1501C15.6953 20.862 12.9197 20.862 11.2078 19.1501L9.658 17.6003C7.94611 15.8884 7.9461 13.1129 9.658 11.401L11.2078 9.85113Z" fill="#A158FF"/>
<path d="M10.4316 34.9688C8.43437 32.9716 8.43437 29.7335 10.4316 27.7363L14.5645 23.6034L22.3136 31.3525L18.1807 35.4854C16.1835 37.4826 12.9454 37.4826 10.9482 35.4854L10.4316 34.9688Z" fill="#0BCD86"/>
</svg>